{"title":"Colombiana (2011) HDRIP .MKV.360.xvid.AC3 2.0-ACB-team","uid":6734679,"size":1797286042,"categoryP":"video","categoryS":"movies","magnet":"?xt=urn:btih:88ba24c63238bb4cbb477c3599591b0205803429&amp;dn=Colombiana+%282011%29+HDRIP+.MKV.360.xvid.AC3+2.0-ACB-team&amp;tr=udp%3A%2F%2Ftracker.openbittorrent.com%3A80&amp;tr=udp%3A%2F%2Fopen.demonii.com%3A1337&amp;tr=udp%3A%2F%2Ftracker.coppersurfer.tk%3A6969&amp;tr=udp%3A%2F%2Fexodus.desync.com%3A6969","seeders":0,"leechers":0,"uploader":"joshua1964","files":1,"time":1318284440,"description":"A young woman, after witnessing her parents\\' murder as a child in Bogota, grows up to be a stone-cold assassin.\n\nDirector:\nOlivier Megaton\nWriters:\nLuc Besson (screenplay), Robert Mark Kamen (screenplay)\nStars:\nZoe Saldana, Michael Vartan and Callum Blue \n\nMedia info:\n\nGeneral\nComplete name                    : E:\\\\torrent2\\\\Colombiana (2011) HDRIP .MKV.360.xvid.AC3 2.0-ACB-team\\\\Colombiana (2011) HDRIP .MKV.360.xvid.AC3 5.1 upmix-ACB-Team.mkv\nFormat                           : Matroska\nFile size                        : 1.67 GiB\nDuration                         : 1h 47mn\nOverall bit rate                 : 2 223 Kbps\nEncoded date                     : UTC 2011-10-10 19:52:36\nWriting application              : mkvmerge v3.2.0 (\\'Beginnings\\') built on Feb 12 2010 16:46:17\nWriting library                  : libebml v0.7.9 + libmatroska v0.8.1\n\nVideo\nID                               : 1\nFormat                           : MPEG-4 Visual\nFormat profile                   : Advanced Simple@L5\nFormat settings, BVOP            : Yes\nFormat settings, QPel            : Yes\nFormat settings, GMC             : No warppoints\nFormat settings, Matrix          : Default (H.263)\nCodec ID                         : XVID\nCodec ID/Hint                    : XviD\nDuration                         : 1h 47mn\nBit rate                         : 1 731 Kbps\nWidth                            : 720 pixels\nHeight                           : 288 pixels\nDisplay aspect ratio             : 2.500\nFrame rate                       : 29.970 fps\nColor space                      : YUV\nChroma subsampling               : 4:2:0\nBit depth                        : 8 bits\nScan type                        : Progressive\nBits/(Pixel*Frame)               : 0.278\nStream size                      : 1.30 GiB (78%)\nWriting library                  : XviD 1.2.1 (UTC 2008-12-04)\n\nAudio\nID                               : 3\nFormat                           : AC-3\nFormat/Info                      : Audio Coding 3\nMode extension                   : CM (complete main)\nCodec ID                         : A_AC3\nDuration                         : 1h 47mn\nBit rate mode                    : Constant\nBit rate                         : 448 Kbps\nChannel(s)                       : 6 channels\nChannel positions                : Front: L C R, Side: L R, LFE\nSampling rate                    : 48.0 KHz\nBit depth                        : 16 bits\nStream size                      : 345 MiB (20%)\nLanguage                         : English\n\nText\nID                               : 2\nFormat                           : UTF-8\nCodec ID                         : S_TEXT/UTF8\nCodec ID/Info                    : UTF-8 Plain Text\nLanguage                         : Dutch\n\n","torrent":{"xt":"urn:btih:88ba24c63238bb4cbb477c3599591b0205803429","amp;dn":"Colombiana+%282011%29+HDRIP+.MKV.360.xvid.AC3+2.0-ACB-team","amp;tr":["udp%3A%2F%2Ftracker.openbittorrent.com%3A80","udp%3A%2F%2Fopen.demonii.com%3A1337","udp%3A%2F%2Ftracker.coppersurfer.tk%3A6969","udp%3A%2F%2Fexodus.desync.com%3A6969"],"infoHash":"88ba24c63238bb4cbb477c3599591b0205803429","infoHashBuffer":{"type":"Buffer","data":[136,186,36,198,50,56,187,76,187,71,124,53,153,89,27,2,5,128,52,41]},"announce":[],"urlList":[]}}